<svg id="Group_9" data-name="Group 9" xmlns="http://www.w3.org/2000/svg" xmlns:xlink="http://www.w3.org/1999/xlink" width="260" height="52" viewBox="0 0 260 52">
  <defs>
    <clipPath id="clip-path">
      <rect id="Rectangle_32" data-name="Rectangle 32" width="260" height="52" fill="none"/>
    </clipPath>
  </defs>
  <path id="Path_46" data-name="Path 46" d="M0,22.136V43.278H7.091V35.489H19.922l2.071-5.107H7.091V27.244H23.467l2.072-5.108Z" transform="translate(0 -7.748)" fill="#fff"/>
  <path id="Path_47" data-name="Path 47" d="M74.547,22.138l2.07,5.106H85.6V43.278h7.09V27.244h9.079L99.7,22.138Z" transform="translate(-26.091 -7.748)" fill="#fff"/>
  <path id="Path_48" data-name="Path 48" d="M182.918,43.278V27.243h9.118l2.07-5.106H168.952l-2.07,5.106h8.946V43.278Z" transform="translate(-58.409 -7.748)" fill="#fff"/>
  <rect id="Rectangle_31" data-name="Rectangle 31" width="7.091" height="21.622" transform="translate(227.748 14.39)" fill="#fff"/>
  <path id="Path_49" data-name="Path 49" d="M383.02,22.138h-9.313l-9.82,10.4L374.42,43.76h9.669l-12.8-11.227Z" transform="translate(-127.36 -7.748)" fill="#fff"/>
  <path id="Path_50" data-name="Path 50" d="M51.1,22.136H44.005L34.8,43.278H41.9l7.2-16.535h.8l7.2,16.535h7.09l-9.2-21.142Z" transform="translate(-12.182 -7.748)" fill="#fff"/>
  <g id="Group_8" data-name="Group 8">
    <g id="Group_7" data-name="Group 7" clip-path="url(#clip-path)">
      <path id="Path_51" data-name="Path 51" d="M236.565,29.625s1.6-7.487-11.359-7.487H214.662l-2.07,5.106v9.281h7.091V27.244h6.753s3.377-.142,3.377,1.835v14.2h7.09v-9.53l-3-2.272Z" transform="translate(-74.407 -7.748)" fill="#fff"/>
      <path id="Path_52" data-name="Path 52" d="M275.182,35.347s-.549,3.324-5.867,3.324-5.867-3.324-5.867-3.324V22.138h-7.091V35.347l.042.969c0,7.446,12.915,7.109,12.915,7.109s12.915.337,12.915-7.109l.043-.969V22.138h-7.091Z" transform="translate(-89.725 -7.748)" fill="#fff"/>
      <path id="Path_53" data-name="Path 53" d="M316.6,43.76H328.67V39.049H316.6c-3.89,0-7.044-2.731-7.044-6.1s3.154-6.1,7.044-6.1H328.67V22.138H316.6c-7.873,0-14.256,4.841-14.256,10.811S308.725,43.76,316.6,43.76" transform="translate(-105.82 -7.748)" fill="#fff"/>
      <path id="Path_54" data-name="Path 54" d="M396.609,26.986a.609.609,0,0,1-.005-.084v-.253a.768.768,0,0,0-.251-.636.97.97,0,0,0-.4-.164.934.934,0,0,0,.493-.19.62.62,0,0,0,.2-.516.714.714,0,0,0-.379-.677,1.38,1.38,0,0,0-.56-.146c-.04,0-.235,0-.587-.005l-.792,0v2.835h.745v-1h.157l.164.01a.836.836,0,0,1,.254.045.344.344,0,0,1,.209.208,1.289,1.289,0,0,1,.047.347,2.124,2.124,0,0,0,.047.392h.71l-.026-.079a.444.444,0,0,1-.021-.083m-.844-1.454a.692.692,0,0,1-.408.1h-.289v-.822h.181a1.236,1.236,0,0,1,.432.059.324.324,0,0,1,.23.322.384.384,0,0,1-.146.337" transform="translate(-138.013 -8.51)" fill="#fff"/>
      <path id="Path_55" data-name="Path 55" d="M396.486,23.3a2.477,2.477,0,0,0-1.813-.749,2.517,2.517,0,0,0-1.765.694,2.432,2.432,0,0,0-.8,1.863,2.528,2.528,0,0,0,2.566,2.557,2.5,2.5,0,0,0,1.8-.722,2.563,2.563,0,0,0,.018-3.643m-.32,3.314a2.105,2.105,0,0,1-2.99,0,2.118,2.118,0,0,1-.01-2.991,2.118,2.118,0,0,1,3.62,1.481,2.069,2.069,0,0,1-.619,1.506" transform="translate(-137.237 -7.893)" fill="#fff"/>
      <path id="Path_56" data-name="Path 56" d="M192.235,63.116l-.954,4.475h1.242l.954-4.475Z" transform="translate(-66.949 -22.091)" fill="#fff"/>
      <path id="Path_57" data-name="Path 57" d="M197.82,63.116l-.5,2.356-.845-2.356h-1.188l-.954,4.475h1.19l.512-2.41.878,2.41h1.146l.954-4.475Z" transform="translate(-68.016 -22.091)" fill="#fff"/>
      <path id="Path_58" data-name="Path 58" d="M204.778,63.215h0a2.147,2.147,0,0,0-.679-.1h-1.924l-.954,4.475h2a2.076,2.076,0,0,0,1.688-.836,3.569,3.569,0,0,0,.731-2.18,1.691,1.691,0,0,0-.172-.744,1.2,1.2,0,0,0-.7-.615m-.461,2.057a2.263,2.263,0,0,1-.272.72.922.922,0,0,1-.813.507h-.556l.487-2.293h.638c.3,0,.48.071.532.211a1.63,1.63,0,0,1-.016.855" transform="translate(-70.427 -22.091)" fill="#fff"/>
      <path id="Path_59" data-name="Path 59" d="M211.638,63.116l-.571,2.668a1.452,1.452,0,0,1-.2.551.651.651,0,0,1-.591.259c-.374,0-.41-.145-.426-.209a1.17,1.17,0,0,1,.034-.523l.587-2.746h-1.262l-.57,2.667a2.132,2.132,0,0,0-.007,1.121c.189.526.689.792,1.487.792a2.082,2.082,0,0,0,1.739-.74,2.719,2.719,0,0,0,.456-1.093l.587-2.746Z" transform="translate(-72.996 -22.091)" fill="#fff"/>
      <path id="Path_60" data-name="Path 60" d="M217.583,62.932a2.218,2.218,0,0,0-1.372.4,1.711,1.711,0,0,0-.668,1.025,1,1,0,0,0,.292,1.073,2.344,2.344,0,0,0,.9.351l.416.1a1.352,1.352,0,0,1,.45.161c.032.023.053.045.036.122a.429.429,0,0,1-.333.333,1.477,1.477,0,0,1-.448.057c-.183,0-.418-.029-.5-.161a.553.553,0,0,1-.038-.309l.014-.2h-1.177l-.033.15a1.188,1.188,0,0,0,.3,1.18,1.847,1.847,0,0,0,1.316.419,2.343,2.343,0,0,0,1.409-.408,1.719,1.719,0,0,0,.7-1.046,1.015,1.015,0,0,0-.245-1.014,1.62,1.62,0,0,0-.722-.343l-.673-.17a1.626,1.626,0,0,1-.444-.146c-.035-.022-.059-.044-.04-.128a.361.361,0,0,1,.188-.248.9.9,0,0,1,.462-.107.78.78,0,0,1,.381.077c.077.045.151.119.117.333l-.034.218h1.206l.028-.156a1.188,1.188,0,0,0-.328-1.171,1.687,1.687,0,0,0-1.162-.392" transform="translate(-75.278 -22.026)" fill="#fff"/>
      <path id="Path_61" data-name="Path 61" d="M225.873,63.116h-3.717l-.238,1.1h1.236l-.716,3.37h1.253l.716-3.37h1.229Z" transform="translate(-77.671 -22.091)" fill="#fff"/>
      <path id="Path_62" data-name="Path 62" d="M231.688,64a1.189,1.189,0,0,0-.164-.41h0a.972.972,0,0,0-.414-.354,1.853,1.853,0,0,0-.721-.123h-2.169l-.953,4.475h1.228l.34-1.606h.733c.287,0,.343.062.343.063s.05.066-.009.364l-.075.38a2.111,2.111,0,0,0-.043.39c0,.06,0,.138.012.235l.014.174h1.279l.071-.378-.1-.07c-.007-.005-.025-.018-.025-.079a2.078,2.078,0,0,1,.055-.341l.059-.274a1.419,1.419,0,0,0,.012-.743.658.658,0,0,0-.135-.226,1.246,1.246,0,0,0,.349-.321,1.717,1.717,0,0,0,.3-.647,1.282,1.282,0,0,0,.013-.507m-1.271.545a.413.413,0,0,1-.245.327,1.007,1.007,0,0,1-.375.051h-.738l.154-.721h.843a.663.663,0,0,1,.309.047c.025.014.1.059.052.3" transform="translate(-79.543 -22.091)" fill="#fff"/>
      <path id="Path_63" data-name="Path 63" d="M234.954,63.116,234,67.59h1.242l.953-4.475Z" transform="translate(-81.9 -22.091)" fill="#fff"/>
      <path id="Path_64" data-name="Path 64" d="M239.037,63.116l-2.555,4.475h1.338l.463-.842h1.229l.086.842h1.322l-.637-4.475Zm-.166,2.547.428-.792.083.792Z" transform="translate(-82.769 -22.091)" fill="#fff"/>
      <path id="Path_65" data-name="Path 65" d="M246.141,63.116h-1.247l-.954,4.475h3.282l.236-1.116h-2.034Z" transform="translate(-85.379 -22.091)" fill="#fff"/>
      <path id="Path_66" data-name="Path 66" d="M255.731,62.924a2.348,2.348,0,0,0-1.562.517,2.932,2.932,0,0,0-1.055,1.8,2.071,2.071,0,0,0,.3,1.844,1.655,1.655,0,0,0,1.4.553,2.359,2.359,0,0,0,1.567-.521,3,3,0,0,0,1.05-1.8,2.04,2.04,0,0,0-.3-1.844,1.658,1.658,0,0,0-1.4-.552m.463,2.317a1.887,1.887,0,0,1-.476.971,1.037,1.037,0,0,1-.757.32.6.6,0,0,1-.569-.282,1.319,1.319,0,0,1-.053-.931,1.867,1.867,0,0,1,.478-.971,1.042,1.042,0,0,1,.759-.32.587.587,0,0,1,.565.281,1.341,1.341,0,0,1,.052.931" transform="translate(-88.562 -22.023)" fill="#fff"/>
      <path id="Path_67" data-name="Path 67" d="M261.96,64.223h2.06l.234-1.1h-3.3L260,67.593h1.242l.365-1.717h1.8l.231-1.091h-1.8Z" transform="translate(-91.001 -22.094)" fill="#fff"/>
      <path id="Path_68" data-name="Path 68" d="M267.852,64.223h2.06l.234-1.1h-3.3l-.95,4.469h1.242l.365-1.717h1.8l.231-1.091h-1.8Z" transform="translate(-93.063 -22.094)" fill="#fff"/>
      <path id="Path_69" data-name="Path 69" d="M271.711,67.528h1.99l.243-1.13h-1.988Z" transform="translate(-95.099 -23.239)" fill="#fff"/>
      <path id="Path_70" data-name="Path 70" d="M279.525,63.594h0a.972.972,0,0,0-.414-.354,1.853,1.853,0,0,0-.721-.123H276.22l-.953,4.475h1.228l.34-1.606h.733c.287,0,.343.062.343.063s.05.066-.009.364l-.075.38a2.111,2.111,0,0,0-.043.39c0,.06,0,.138.012.235l.014.174h1.279l.071-.378-.1-.07c-.007-.005-.025-.018-.025-.079a2.078,2.078,0,0,1,.055-.341l.059-.274a1.419,1.419,0,0,0,.012-.743.657.657,0,0,0-.135-.226,1.247,1.247,0,0,0,.349-.321,1.718,1.718,0,0,0,.3-.647A1.282,1.282,0,0,0,279.69,64a1.189,1.189,0,0,0-.164-.41m-1.107.954a.413.413,0,0,1-.245.327,1.007,1.007,0,0,1-.375.051h-.738l.154-.721h.843a.663.663,0,0,1,.309.047c.025.014.1.059.052.3" transform="translate(-96.343 -22.091)" fill="#fff"/>
      <path id="Path_71" data-name="Path 71" d="M286.589,63.476a1.658,1.658,0,0,0-1.4-.552,2.348,2.348,0,0,0-1.562.517,2.932,2.932,0,0,0-1.055,1.8,2.071,2.071,0,0,0,.3,1.844,1.654,1.654,0,0,0,1.4.553,2.359,2.359,0,0,0,1.567-.521,3,3,0,0,0,1.05-1.8,2.04,2.04,0,0,0-.3-1.844m-.934,1.765a1.887,1.887,0,0,1-.476.971,1.037,1.037,0,0,1-.757.32.6.6,0,0,1-.569-.282,1.319,1.319,0,0,1-.053-.931,1.867,1.867,0,0,1,.478-.971,1.042,1.042,0,0,1,.759-.32.587.587,0,0,1,.565.281,1.341,1.341,0,0,1,.052.931" transform="translate(-98.873 -22.023)" fill="#fff"/>
      <path id="Path_72" data-name="Path 72" d="M291.43,63.116l-2.555,4.475h1.338l.463-.842H291.9l.086.842h1.322l-.637-4.475Zm-.166,2.547.428-.792.083.792Z" transform="translate(-101.106 -22.091)" fill="#fff"/>
      <path id="Path_73" data-name="Path 73" d="M299.89,63.215h0a2.154,2.154,0,0,0-.68-.1h-1.924l-.953,4.475h2a2.076,2.076,0,0,0,1.688-.836,3.518,3.518,0,0,0,.661-1.463,3.413,3.413,0,0,0,.07-.717,1.673,1.673,0,0,0-.172-.744,1.191,1.191,0,0,0-.695-.615m-.461,2.057a2.289,2.289,0,0,1-.272.72.922.922,0,0,1-.813.507h-.556l.487-2.293h.638c.3,0,.48.071.532.211a1.63,1.63,0,0,1-.016.855" transform="translate(-103.717 -22.091)" fill="#fff"/>
      <path id="Path_74" data-name="Path 74" d="M309.146,65.783a1.437,1.437,0,0,1-.2.551.652.652,0,0,1-.591.26c-.374,0-.409-.145-.426-.209a1.173,1.173,0,0,1,.035-.523l.587-2.747h-1.262l-.57,2.668a2.127,2.127,0,0,0-.007,1.121c.189.526.689.792,1.487.792a2.081,2.081,0,0,0,1.739-.74,2.711,2.711,0,0,0,.456-1.093l.587-2.747h-1.261Z" transform="translate(-107.323 -22.09)" fill="#fff"/>
      <path id="Path_75" data-name="Path 75" d="M317.566,63.116h-3.717l-.238,1.1h1.236l-.716,3.37h1.253l.716-3.37h1.229Z" transform="translate(-109.764 -22.091)" fill="#fff"/>
      <path id="Path_76" data-name="Path 76" d="M319.779,63.116l-.954,4.475h1.242l.953-4.475Z" transform="translate(-111.589 -22.091)" fill="#fff"/>
      <path id="Path_77" data-name="Path 77" d="M324.1,63.116h-1.247L321.9,67.59h3.282l.236-1.116H323.38Z" transform="translate(-112.663 -22.091)" fill="#fff"/>
      <path id="Path_78" data-name="Path 78" d="M327.684,67.59h1.242l.953-4.475h-1.242Z" transform="translate(-114.689 -22.091)" fill="#fff"/>
      <path id="Path_79" data-name="Path 79" d="M331.327,64.22h1.236l-.716,3.37H333.1l.716-3.37h1.229l.238-1.1h-3.717Z" transform="translate(-115.965 -22.09)" fill="#fff"/>
      <path id="Path_80" data-name="Path 80" d="M339.247,64.634l-.4-1.518h-1.424l.944,2.757L338,67.59h1.247l.349-1.649,2.123-2.826h-1.454Z" transform="translate(-118.098 -22.091)" fill="#fff"/>
      <path id="Path_81" data-name="Path 81" d="M349.554,63.116l-1.307,2.6-.19-2.6h-1.31l.564,4.475H348.4l2.486-4.475Z" transform="translate(-121.361 -22.091)" fill="#fff"/>
      <path id="Path_82" data-name="Path 82" d="M356.384,64.22l.238-1.1h-3.4l-.953,4.475h3.5L356,66.475H353.73l.142-.674h2l.235-1.09h-2l.1-.491Z" transform="translate(-123.293 -22.09)" fill="#fff"/>
      <path id="Path_83" data-name="Path 83" d="M362.012,63.116l-.335,1.561h-1.216l.335-1.561h-1.24L358.6,67.59h1.24l.387-1.828h1.216l-.387,1.828H362.3l.953-4.475Z" transform="translate(-125.511 -22.091)" fill="#fff"/>
      <path id="Path_84" data-name="Path 84" d="M365.378,67.59h1.242l.953-4.475h-1.241Z" transform="translate(-127.882 -22.091)" fill="#fff"/>
      <path id="Path_85" data-name="Path 85" d="M370.563,64.422a.9.9,0,0,1,.68-.316.528.528,0,0,1,.477.182.725.725,0,0,1,.088.352l.012.177h1.2l.027-.159a1.441,1.441,0,0,0-.137-.879A1.554,1.554,0,0,0,371.366,63a2.308,2.308,0,0,0-1.507.549h0a3.026,3.026,0,0,0-.993,1.759,2.172,2.172,0,0,0,.2,1.708,1.614,1.614,0,0,0,1.431.65,2.221,2.221,0,0,0,1.38-.459,2.623,2.623,0,0,0,.863-1.173l.1-.257H371.6l-.052.107a1.516,1.516,0,0,1-.28.423.842.842,0,0,1-.619.24.524.524,0,0,1-.491-.253,1.26,1.26,0,0,1-.04-.894,2.013,2.013,0,0,1,.449-.975" transform="translate(-129.076 -22.049)" fill="#fff"/>
      <path id="Path_86" data-name="Path 86" d="M377.518,63.116H376.27l-.954,4.475H378.6l.236-1.116H376.8Z" transform="translate(-131.361 -22.091)" fill="#fff"/>
      <path id="Path_87" data-name="Path 87" d="M385.365,64.22l.238-1.1h-3.4l-.953,4.475h3.5l.237-1.115h-2.274l.142-.674h2l.235-1.09h-2l.1-.491Z" transform="translate(-133.436 -22.09)" fill="#fff"/>
      <path id="Path_88" data-name="Path 88" d="M390.217,62.932a2.218,2.218,0,0,0-1.372.4,1.711,1.711,0,0,0-.668,1.025,1,1,0,0,0,.292,1.073,2.345,2.345,0,0,0,.9.351l.416.1a1.351,1.351,0,0,1,.45.161c.032.023.053.045.036.122a.429.429,0,0,1-.333.333,1.475,1.475,0,0,1-.447.057c-.183,0-.419-.029-.5-.161a.553.553,0,0,1-.038-.309l.014-.2h-1.177l-.033.15a1.188,1.188,0,0,0,.3,1.18,1.847,1.847,0,0,0,1.316.419,2.343,2.343,0,0,0,1.409-.408,1.719,1.719,0,0,0,.7-1.046,1.015,1.015,0,0,0-.245-1.014,1.619,1.619,0,0,0-.722-.343l-.673-.17a1.627,1.627,0,0,1-.444-.146c-.035-.022-.059-.044-.04-.128a.361.361,0,0,1,.188-.248.9.9,0,0,1,.462-.107.78.78,0,0,1,.381.077c.077.045.151.119.117.333l-.034.218h1.206l.028-.156a1.188,1.188,0,0,0-.328-1.171,1.687,1.687,0,0,0-1.162-.392" transform="translate(-135.699 -22.026)" fill="#fff"/>
      <path id="Path_89" data-name="Path 89" d="M136.529,20.447,152.905,0,135.769,14.389H120.913L104.283,0l15.785,20.446Z" transform="translate(-36.499 0)" fill="#ff0100"/>
      <path id="Path_90" data-name="Path 90" d="M120.659,48.544,104.283,68.99,121.419,54.6h14.856l16.63,14.388L137.12,48.544Z" transform="translate(-36.499 -16.99)" fill="#ff0100"/>
    </g>
  </g>
</svg>
