<?xml version="1.0" encoding="UTF-8"?>
<svg id="Layer_2" data-name="Layer 2" xmlns="http://www.w3.org/2000/svg" viewBox="0 0 45.53 41.05">
  <defs>
    <style>
      .cls-1 {
        fill: #ff0100;
        stroke-width: 0px;
      }
    </style>
  </defs>
  <g id="Layer_1-2" data-name="Layer 1">
    <path id="readiness_score_FILL0_wght400_GRAD0_opsz24" data-name="readiness score FILL0 wght400 GRAD0 opsz24" class="cls-1" d="M12.24,41.04c-1.37-.04-2.7-.4-3.9-1.05-1.34-.75-2.53-1.75-3.5-2.93-1.58-1.93-2.79-4.14-3.56-6.52C.43,28.03,0,25.41,0,22.77c-.02-3.05.59-6.07,1.79-8.88,1.15-2.7,2.8-5.15,4.87-7.23,2.08-2.07,4.53-3.72,7.23-4.87C16.69.59,19.71-.02,22.77,0c3.05-.02,6.08.6,8.88,1.82,2.71,1.17,5.16,2.85,7.23,4.95,2.07,2.12,3.72,4.61,4.87,7.34,1.21,2.86,1.82,5.94,1.79,9.05.02,2.8-.46,5.57-1.42,8.2-.87,2.41-2.24,4.61-4.04,6.43-.97,1-2.11,1.81-3.36,2.42-1.12.54-2.34.82-3.59.83-.69,0-1.38-.09-2.05-.26-.71-.18-1.4-.44-2.05-.77l-3.19-1.59c-.46-.23-.95-.4-1.45-.51-.53-.12-1.08-.17-1.62-.17-.55,0-1.09.05-1.62.17-.5.11-.99.28-1.45.51l-3.19,1.59c-.67.36-1.39.64-2.13.83-.7.17-1.42.23-2.13.19ZM12.35,36.48c.35,0,.71-.04,1.05-.11.37-.08.72-.21,1.05-.4l3.19-1.59c.78-.41,1.61-.72,2.48-.91.85-.19,1.72-.29,2.59-.28.88,0,1.76.1,2.62.28.87.19,1.71.5,2.5.91l3.24,1.59c.32.18.67.32,1.02.4.34.08.68.11,1.02.11.72,0,1.43-.2,2.05-.57.74-.46,1.39-1.04,1.93-1.71,1.26-1.53,2.23-3.29,2.85-5.18.68-2,1.03-4.09,1.02-6.2.09-4.86-1.82-9.54-5.29-12.95-3.38-3.49-8.06-5.41-12.92-5.32-4.86-.09-9.55,1.85-12.92,5.35-3.47,3.42-5.38,8.11-5.29,12.98,0,2.15.35,4.28,1.05,6.32.62,1.91,1.62,3.67,2.93,5.18.52.65,1.16,1.2,1.88,1.62.59.32,1.26.48,1.93.48h0ZM22.77,27.32c1.21.02,2.37-.47,3.22-1.34.87-.84,1.35-2.01,1.34-3.22,0-.31-.03-.61-.08-.91-.06-.31-.14-.62-.26-.91l2.85-3.81c.38.49.71,1.01,1,1.57.29.57.53,1.17.71,1.79h4.66c-.49-3.21-2.14-6.12-4.64-8.2-2.45-2.1-5.57-3.23-8.79-3.19-3.23-.04-6.37,1.11-8.82,3.22-2.49,2.06-4.14,4.97-4.61,8.17h4.66c.48-1.97,1.63-3.72,3.24-4.95,1.57-1.23,3.52-1.89,5.52-1.88.61,0,1.22.05,1.82.17.57.11,1.12.28,1.65.51l-2.9,3.93c-.1,0-.19-.01-.29-.03-.09-.02-.19-.03-.29-.03-1.21-.02-2.37.47-3.22,1.34-.87.84-1.35,2.01-1.34,3.22-.02,1.21.47,2.37,1.34,3.22.84.87,2,1.36,3.22,1.34h0Z"/>
  </g>
</svg>