<?xml version="1.0" encoding="UTF-8"?>
<svg id="Layer_2" data-name="Layer 2" xmlns="http://www.w3.org/2000/svg" viewBox="0 0 16 20">
  <defs>
    <style>
      .cls-1 {
        fill: #ff0100;
        stroke-width: 0px;
      }
    </style>
  </defs>
  <g id="Layer_1-2" data-name="Layer 1">
    <path class="cls-1" d="M6.5,13h3l-.58-3.23c.33-.17.6-.41.79-.73.19-.32.29-.67.29-1.05,0-.55-.2-1.02-.59-1.41s-.86-.59-1.41-.59-1.02.2-1.41.59-.59.86-.59,1.41c0,.38.1.73.29,1.05.19.32.45.56.79.73l-.58,3.23ZM8,20c-2.32-.58-4.23-1.91-5.74-3.99C.75,13.94,0,11.63,0,9.1V3L8,0l8,3v6.1c0,2.53-.75,4.84-2.26,6.91s-3.42,3.4-5.74,3.99ZM8,17.9c1.73-.55,3.17-1.65,4.3-3.3s1.7-3.48,1.7-5.5v-4.73l-6-2.25-6,2.25v4.73c0,2.02.57,3.85,1.7,5.5s2.57,2.75,4.3,3.3Z"/>
  </g>
</svg>